<svg aria-hidden="true" width="32" height="32" viewBox="0 0 32 32" fill="none"
    xmlns="http://www.w3.org/2000/svg">
    <rect width="32" height="32" rx="16" fill="#6846F6" />
    <path fill-rule="evenodd" clip-rule="evenodd"
        d="M15.9782 8.34967C14.1195 8.34967 12.2651 8.98342 10.7549 10.2506C9.84592 11.0133 9.14341 11.9414 8.65552 12.9576C8.58782 12.9511 8.52192 12.9365 8.4524 12.9365C7.23837 12.9365 6.26086 13.9139 6.26086 15.128V17.8365C6.26086 19.0505 7.23837 20.028 8.4524 20.028C8.52193 20.028 8.58782 20.0129 8.65552 20.0068C8.74288 20.1879 8.83326 20.3676 8.93512 20.5442C9.33333 21.2549 10.3972 20.6464 9.98638 19.9428C8.30435 17.0294 8.95577 13.3376 11.5328 11.1753C14.1098 9.01283 17.853 9.01283 20.43 11.1753C23.007 13.3376 23.6584 17.0294 21.9764 19.9428L21.9582 19.973L21.9461 20.0032C21.9461 20.0032 21.1292 21.8104 19.525 21.8104L17.4944 21.7922C17.304 21.5141 16.9992 21.3205 16.6353 21.3205H15.3263C14.7394 21.3205 14.2673 21.7942 14.2673 22.3811C14.2673 22.7431 14.497 23.0181 15.0227 23.0181L19.525 23.0184C21.9323 23.0184 22.9734 20.6551 23.0208 20.5457V20.5393C23.1218 20.3643 23.2106 20.1846 23.2974 20.0051C23.3681 20.0115 23.437 20.0262 23.5099 20.0262C24.7239 20.0262 25.7014 19.0488 25.7014 17.8348V15.1262C25.7014 13.9122 24.7239 12.9347 23.5099 12.9347C23.4397 12.9347 23.3736 12.9463 23.3052 12.9558C22.8185 11.9396 22.1181 11.0116 21.209 10.2489C19.6988 8.98166 17.8366 8.3479 15.9778 8.3479L15.9782 8.34967ZM13.3369 12.2C12.8651 12.1692 12.4342 12.269 12.0576 12.6655C11.0534 13.7227 10.4331 15.1616 10.4331 16.6939C10.4331 17.9579 10.8555 19.3742 11.5671 19.4259C12.5809 19.4996 14.1807 18.8339 15.9814 18.8339C17.8896 18.8339 19.5735 19.5809 20.5721 19.404C21.1773 19.297 21.5312 17.8504 21.5312 16.6939C21.5312 15.1616 20.9093 13.7227 19.9052 12.6655C18.901 11.6083 17.5137 12.6655 15.9814 12.6655C15.0237 12.6655 14.1232 12.2516 13.3369 12.2ZM13.112 14.8054C13.6718 14.8057 14.1256 15.2594 14.1258 15.8192C14.1256 16.379 13.6718 16.8328 13.112 16.833C12.5522 16.8328 12.0984 16.379 12.0983 15.8192C12.0984 15.2594 12.5522 14.8057 13.112 14.8054ZM18.8508 14.8054C19.4107 14.8057 19.8644 15.2594 19.8646 15.8192C19.8644 16.379 19.4107 16.8328 18.8508 16.833C18.291 16.8328 17.8373 16.379 17.8371 15.8192C17.8373 15.2594 18.291 14.8057 18.8508 14.8054Z"
        fill="#C8C8C8" />
</svg>