<svg aria-hidden="true" xmlns="http://www.w3.org/2000/svg" width="46" height="46"
    viewBox="0 0 46 46" fill="none">
    <path fill-rule="evenodd" clip-rule="evenodd"
        d="M22.9948 9.91405C19.6781 9.91405 16.3691 11.0449 13.6743 13.3061C12.0524 14.6671 10.7988 16.323 9.92825 18.1364C9.80743 18.1249 9.68985 18.0987 9.5658 18.0987C7.3995 18.0987 5.65524 19.8429 5.65524 22.0091V26.8422C5.65524 29.0085 7.3995 30.7527 9.5658 30.7527C9.68986 30.7527 9.80743 30.7258 9.92825 30.715C10.0841 31.0381 10.2454 31.3588 10.4272 31.6738C11.1377 32.942 13.0361 31.8562 12.303 30.6008C9.30162 25.4021 10.464 18.8145 15.0623 14.956C19.6608 11.0974 26.34 11.0974 30.9384 14.956C35.5369 18.8145 36.6993 25.402 33.6978 30.6008L33.6655 30.6546L33.6438 30.7084C33.6438 30.7084 32.1861 33.9332 29.3237 33.9332L25.7003 33.9008C25.3605 33.4046 24.8166 33.059 24.1673 33.059H21.8316C20.7843 33.059 19.9418 33.9043 19.9418 34.9516C19.9418 35.5976 20.3517 36.0881 21.2897 36.0881L29.3236 36.0888C33.6191 36.0888 35.4769 31.8717 35.5615 31.6766V31.6651C35.7416 31.3528 35.9002 31.0321 36.055 30.7119C36.1812 30.7234 36.3042 30.7496 36.4342 30.7496C38.6005 30.7496 40.3447 29.0054 40.3447 26.8391V22.006C40.3447 19.8398 38.6005 18.0955 36.4342 18.0955C36.309 18.0955 36.1909 18.1162 36.069 18.1333C35.2005 16.3198 33.9507 14.664 32.3285 13.3029C29.6338 11.0418 26.3109 9.91089 22.9941 9.91089L22.9948 9.91405ZM18.2816 16.7846C17.4398 16.7296 16.6708 16.9076 15.9989 17.6152C14.2071 19.5016 13.1001 22.0691 13.1001 24.8035C13.1001 27.0589 13.8539 29.5861 15.1237 29.6783C16.9326 29.8099 19.7873 28.622 23.0004 28.622C26.4054 28.622 29.4102 29.9548 31.1921 29.6393C32.272 29.4484 32.9035 26.867 32.9035 24.8035C32.9035 22.0691 31.7938 19.5016 30.002 17.6152C28.2101 15.7287 25.7347 17.6152 23.0004 17.6152C21.2915 17.6152 19.6846 16.8767 18.2816 16.7846ZM17.8803 21.4336C18.8793 21.434 19.6889 22.2437 19.6893 23.2426C19.6889 24.2415 18.8793 25.0512 17.8803 25.0515C16.8814 25.0512 16.0718 24.2415 16.0714 23.2426C16.0718 22.2437 16.8814 21.434 17.8803 21.4336ZM28.1206 21.4336C29.1196 21.434 29.9292 22.2437 29.9296 23.2426C29.9292 24.2415 29.1196 25.0512 28.1206 25.0515C27.1218 25.0512 26.3121 24.2415 26.3117 23.2426C26.3121 22.2437 27.1218 21.434 28.1206 21.4336Z"
        fill="white" />
</svg>