<svg aria-hidden="true" xmlns="http://www.w3.org/2000/svg" width="25" height="26"
    viewBox="0 0 25 26" fill="none">
    <path
        d="M11.2158 8.35736C11.5283 8.05979 11.5404 7.56528 11.2428 7.25284C10.9452 6.94039 10.4507 6.92833 10.1383 7.2259L11.2158 8.35736ZM4.66952 12.4342C4.35708 12.7318 4.34501 13.2263 4.64259 13.5387C4.94015 13.8512 5.43466 13.8633 5.74711 13.5657L4.66952 12.4342ZM5.74711 12.4342C5.43466 12.1366 4.94015 12.1487 4.64259 12.4612C4.34501 12.7736 4.35708 13.2681 4.66952 13.5657L5.74711 12.4342ZM10.1383 18.774C10.4507 19.0716 10.9452 19.0595 11.2428 18.747C11.5404 18.4346 11.5283 17.9402 11.2158 17.6426L10.1383 18.774ZM5.20831 12.2187C4.77685 12.2187 4.42706 12.5685 4.42706 13C4.42706 13.4314 4.77685 13.7812 5.20831 13.7812V12.2187ZM19.7916 13.7812C20.2231 13.7812 20.5729 13.4314 20.5729 13C20.5729 12.5685 20.2231 12.2187 19.7916 12.2187V13.7812ZM10.1383 7.2259L4.66952 12.4342L5.74711 13.5657L11.2158 8.35736L10.1383 7.2259ZM4.66952 13.5657L10.1383 18.774L11.2158 17.6426L5.74711 12.4342L4.66952 13.5657ZM5.20831 13.7812H19.7916V12.2187H5.20831V13.7812Z"
        fill="#B3A3FA" />
</svg>