<svg
    aria-hidden="true"
    xmlns="http://www.w3.org/2000/svg"
    width="40"
    height="40"
    viewBox="0 0 40 40"
    fill="none"
>
    <path
        d="M29.6365 39.2862H14.6858C6.61148 39.2862 0.0680542 32.5931 0.0680542 24.3341C0.0680542 16.0789 6.61148 9.3858 14.6858 9.3858H15.0188C23.0931 9.3858 29.6365 16.0789 29.6365 24.3378V39.2899V39.2862Z"
        fill="#6846F6"
    />
    <path
        d="M35.5111 9.3858C33.944 9.3858 32.6773 10.6852 32.6773 12.2844V39.2862H38.3485V12.2844C38.3485 10.6815 37.0782 9.3858 35.5147 9.3858H35.5111Z"
        fill="#6846F6"
    />
    <path
        d="M23.3414 27.9312C25.2835 23.1353 23.057 17.6371 18.3683 15.6506C13.6797 13.6641 8.30438 15.9415 6.36228 20.7374C4.42018 25.5333 6.6467 31.0315 11.3353 33.018C16.024 35.0045 21.3993 32.7271 23.3414 27.9312Z"
        fill="white"
        fillOpacity="0.5"
    />
    <path
        d="M15.5273 27.2696C17.1108 26.8873 18.0915 25.2644 17.7178 23.6446C17.344 22.0249 15.7574 21.0218 14.1738 21.4041C12.5903 21.7863 11.6096 23.4093 11.9834 25.029C12.3571 26.6488 13.9438 27.6519 15.5273 27.2696Z"
        fill="#2D2042"
    />
    <path
        d="M38.2317 5.09034C38.8543 3.55279 38.1405 1.79007 36.6374 1.1532C35.1342 0.516322 33.4109 1.24646 32.7882 2.78401C32.1656 4.32156 32.8794 6.08428 34.3826 6.72116C35.8858 7.35803 37.6091 6.62789 38.2317 5.09034Z"
        fill="#B3A3FA"
    />
    <path
        d="M38.3448 29.8913H32.6736V39.2868H38.3448V29.8913Z"
        fill="white"
        fillOpacity="0.5"
    />
</svg>