<svg aria-hidden="true" xmlns="http://www.w3.org/2000/svg" width="20" height="20"
    viewBox="0 0 20 20" fill="none">
    <path
        d="M6.19708 5.30238L13.2126 2.96127C16.3626 1.91127 18.0738 3.63016 17.0315 6.78016L14.6904 13.7957C13.1193 18.5168 10.5371 18.5168 8.96598 13.7957L8.27375 11.7112L6.1893 11.019C1.47597 9.45569 1.47597 6.88127 6.19708 5.30238Z"
        fill="#C8C8C8" />
    <path
        d="M10.0938 10.2955C9.94603 10.2955 9.79825 10.2411 9.68159 10.1244C9.45603 9.89883 9.45603 9.5255 9.68159 9.29995L12.6371 6.32883C12.8627 6.10328 13.236 6.10328 13.4616 6.32883C13.6871 6.55439 13.6871 6.92772 13.4616 7.15328L10.506 10.1244C10.3894 10.2333 10.2416 10.2955 10.0938 10.2955Z"
        fill="#B3A3FA" />
</svg>