<svg aria-hidden="true" xmlns="http://www.w3.org/2000/svg" width="16" height="16"
    viewBox="0 0 16 16" fill="none">
    <g clip-path="url(#clip0_418_1672)">
        <path
            d="M1.3335 9.33333C1.3335 6.8192 1.3335 5.5621 2.11454 4.78105C2.8956 4 4.15267 4 6.66683 4H9.3335C11.8476 4 13.1048 4 13.8858 4.78105C14.6668 5.5621 14.6668 6.8192 14.6668 9.33333C14.6668 11.8475 14.6668 13.1046 13.8858 13.8856C13.1048 14.6667 11.8476 14.6667 9.3335 14.6667H6.66683C4.15267 14.6667 2.8956 14.6667 2.11454 13.8856C1.3335 13.1046 1.3335 11.8475 1.3335 9.33333Z"
            stroke="#B3A3FA" />
        <path
            d="M10.6668 4.0026C10.6668 2.74552 10.6668 2.11698 10.2763 1.72646C9.88576 1.33594 9.25723 1.33594 8.00016 1.33594C6.7431 1.33594 6.11454 1.33594 5.72402 1.72646C5.3335 2.11698 5.3335 2.74552 5.3335 4.0026"
            stroke="#B3A3FA" />
        <path
            d="M11.3328 6.0026C11.3328 6.37079 11.0344 6.66927 10.6662 6.66927C10.298 6.66927 9.99951 6.37079 9.99951 6.0026C9.99951 5.63442 10.298 5.33594 10.6662 5.33594C11.0344 5.33594 11.3328 5.63442 11.3328 6.0026Z"
            fill="#B3A3FA" />
        <path
            d="M5.99935 6.0026C5.99935 6.37079 5.70087 6.66927 5.33268 6.66927C4.9645 6.66927 4.66602 6.37079 4.66602 6.0026C4.66602 5.63442 4.9645 5.33594 5.33268 5.33594C5.70087 5.33594 5.99935 5.63442 5.99935 6.0026Z"
            fill="#B3A3FA" />
    </g>
    <defs>
        <clipPath id="clip0_418_1672">
            <rect width="16" height="16" fill="white" />
        </clipPath>
    </defs>
</svg>